<svg width="132" height="107" viewBox="0 0 132 107" fill="none" xmlns="http://www.w3.org/2000/svg">
<path d="M72.47 28.25C72.28 27.57 72.15 27.08 72.02 26.58C72.12 26.46 72.23 26.34 72.33 26.23C73.15 26.71 73.97 27.2 74.77 27.66C75.51 25.87 75.19 24.86 73.64 23.7C73.31 23.45 73.29 22.78 73.2 22.07C74.67 23.95 75.46 21.83 76.63 21.97C75.4 18.82 73.63 18.2 71.33 19.93C71.05 19.51 70.76 19.08 70.5 18.7C69.83 19.25 69.29 19.68 68.75 20.12C68.66 20.02 68.56 19.92 68.47 19.83C68.51 19.64 68.54 19.45 68.6 19.26C68.66 19.07 68.75 18.88 68.84 18.65C67.43 18.32 66.1 18.01 64.76 17.7C64.69 17.86 64.63 18.02 64.56 18.18C64.86 18.45 65.16 18.72 65.84 19.33C62.91 18.84 60.43 18.43 57.95 18.02C57.93 17.85 57.92 17.68 57.9 17.51C58.26 17.29 58.6 16.99 58.99 16.86C77.28 10.76 95.08 23.11 96.95 40.66C98.21 52.51 93.68 61.97 83.73 68.28C73.9 74.52 63.48 74.46 53.45 68.5C35.83 57.99 35.13 31.92 52 20.38C52.98 19.71 53.87 19.62 54.97 20C56.23 20.44 56.6 21.13 56.19 22.4C55.68 23.97 55.5 25.57 54.1 26.82C53.05 27.76 53.36 31.07 54.35 33.21C54.53 32.75 54.66 32.4 54.97 31.59C55.03 32.62 55.21 33.24 55.07 33.78C54.58 35.76 54.79 36.51 56.56 37.16C59.68 38.3 61 41.23 62.97 43.49C63.17 43.72 62.67 45.01 62.19 45.29C60.62 46.2 60.42 47.5 61.01 48.91C61.88 51.02 62.18 53.45 64.24 54.97C64.6 55.24 64.62 56.12 64.62 56.72C64.64 58.84 64.51 60.96 64.58 63.07C64.62 64.32 64.78 65.62 65.17 66.81C65.98 69.3 67.94 70.38 70.95 70.11C70.73 69.84 70.61 69.61 70.42 69.46C68.66 68.12 68.58 65.54 70.35 64.2C73.11 62.1 75.97 60.14 78.7 58C79.42 57.44 79.9 56.49 80.34 55.65C80.98 54.43 81.41 53.09 82.07 51.88C82.94 50.3 82.8 49.44 81.23 48.59C80.62 48.26 79.89 48.15 79.26 47.85C78.07 47.29 76.93 46.64 75.74 46.07C72.92 44.71 70.61 42.33 67.47 41.67C66.4 41.45 65.2 41.89 63.73 42.07C63.23 41.53 62.45 40.69 61.53 39.7C61.63 38.94 62.76 37.65 60.69 37.27C60.91 36.7 61.1 36.21 61.33 35.61C60.97 35.48 60.68 35.26 60.5 35.33C59.99 35.52 59.55 35.95 59.03 36.07C58.17 36.28 57.46 35.81 57.87 34.95C58.39 33.86 59.1 32.47 60.07 32.09C61.07 31.69 62.76 31.25 63.54 32.73C66.09 30.63 68.34 28.02 72.47 28.25Z" fill="#C8C8C8"/>
<path d="M81.33 9.05004C78.99 10.34 76.85 11.57 74.66 12.68C74.09 12.97 73.3 12.98 72.64 12.89C56.18 10.8 41.27 21.34 37.77 37.57C33.85 55.74 47.12 73.79 65.66 75.2C78.79 76.2 88.75 70.71 95.68 59.6C96.12 58.89 96.51 58.15 97.17 56.99C97.26 58.56 97.32 59.68 97.4 61.01C100.92 61.01 104.36 61.01 108.06 61.01C107.82 61.77 107.73 62.29 107.5 62.74C100.28 76.74 88.96 84.62 73.23 86.15C56.38 86.59 38.97 80.97 29.98 64.38C21.56 48.83 23.63 33.2 33.8 18.63C39.64 10.27 47.75 4.94004 57.56 2.29004C63.49 0.690038 69.55 0.430036 75.6 1.55004C76.38 1.69004 77.25 2.35004 77.7 3.02004C78.97 4.88004 80.04 6.87004 81.33 9.05004Z" fill="#B9B9B9"/>
<path d="M18.09 96.0301C17.84 96.1501 17.3 96.2901 16.61 96.2901C14.81 96.2901 13.71 95.1601 13.71 93.4301C13.71 91.5601 15.02 90.4301 16.75 90.4301C17.43 90.4301 17.92 90.5701 18.13 90.6801L17.9 91.5101C17.64 91.3901 17.26 91.2901 16.79 91.2901C15.63 91.2901 14.8 92.0101 14.8 93.3801C14.8 94.6301 15.53 95.4301 16.78 95.4301C17.2 95.4301 17.64 95.3501 17.91 95.2201L18.09 96.0301Z" fill="#B9B9B9"/>
<path d="M23.54 93.3C23.54 95.2 22.39 96.29 20.82 96.29C19.21 96.29 18.2 95.06 18.2 93.4C18.2 91.65 19.3 90.42 20.91 90.42C22.56 90.42 23.54 91.67 23.54 93.3ZM19.29 93.38C19.29 94.54 19.88 95.46 20.87 95.46C21.87 95.46 22.44 94.53 22.44 93.34C22.44 92.27 21.91 91.25 20.87 91.25C19.85 91.25 19.29 92.21 19.29 93.38Z" fill="#B9B9B9"/>
<path d="M24.17 96.2V90.51H25.36L26.83 92.95C27.2 93.58 27.54 94.24 27.8 94.86L27.82 94.85C27.75 94.1 27.73 93.36 27.73 92.49V90.51H28.69V96.2H27.61L26.13 93.7C25.77 93.08 25.39 92.38 25.11 91.74L25.08 91.75C25.12 92.49 25.14 93.24 25.14 94.17V96.2H24.17Z" fill="#B9B9B9"/>
<path d="M29.62 90.51H32.91V91.36H30.66V92.93H32.75V93.78H30.66V96.2H29.62V90.51Z" fill="#B9B9B9"/>
<path d="M36.83 93.67H34.69V95.34H37.09V96.19H33.66V90.5H36.97V91.35H34.7V92.81H36.84V93.67H36.83Z" fill="#B9B9B9"/>
<path d="M37.74 90.5901C38.2 90.5101 38.78 90.4701 39.4 90.4701C40.47 90.4701 41.19 90.6901 41.72 91.1301C42.27 91.5801 42.61 92.2601 42.61 93.2201C42.61 94.2401 42.26 94.9901 41.72 95.4801C41.15 95.9901 40.25 96.2501 39.14 96.2501C38.54 96.2501 38.08 96.2201 37.74 96.1801V90.5901ZM38.77 95.4001C38.92 95.4301 39.14 95.4301 39.35 95.4301C40.7 95.4401 41.5 94.6901 41.5 93.2501C41.51 92.0001 40.78 91.2701 39.48 91.2701C39.15 91.2701 38.92 91.3001 38.77 91.3301V95.4001Z" fill="#B9B9B9"/>
<path d="M46.42 93.67H44.28V95.34H46.68V96.19H43.25V90.5H46.56V91.35H44.29V92.81H46.43V93.67H46.42Z" fill="#B9B9B9"/>
<path d="M47.32 90.5901C47.71 90.5201 48.29 90.4701 48.9 90.4701C49.71 90.4701 50.27 90.6101 50.65 90.9301C50.96 91.1901 51.14 91.5801 51.14 92.0701C51.14 92.8001 50.64 93.3001 50.11 93.4901V93.5101C50.52 93.6701 50.76 94.0601 50.9 94.6101C51.08 95.3201 51.24 95.9701 51.35 96.2001H50.28C50.19 96.0401 50.06 95.5701 49.9 94.8601C49.74 94.1201 49.47 93.8801 48.88 93.8601H48.36V96.2001H47.33V90.5901H47.32ZM48.35 93.1001H48.96C49.66 93.1001 50.1 92.7301 50.1 92.1601C50.1 91.5401 49.66 91.2501 48.99 91.2501C48.66 91.2501 48.45 91.2801 48.34 91.3001V93.1001H48.35Z" fill="#B9B9B9"/>
<path d="M53.06 94.59L52.58 96.2H51.5L53.32 90.51H54.64L56.49 96.2H55.37L54.86 94.59H53.06ZM54.7 93.8L54.25 92.4C54.14 92.05 54.05 91.66 53.96 91.33H53.94C53.86 91.66 53.77 92.06 53.67 92.4L53.23 93.8H54.7Z" fill="#B9B9B9"/>
<path d="M60.94 96.0301C60.69 96.1501 60.15 96.2901 59.46 96.2901C57.66 96.2901 56.56 95.1601 56.56 93.4301C56.56 91.5601 57.87 90.4301 59.6 90.4301C60.28 90.4301 60.77 90.5701 60.98 90.6801L60.75 91.5101C60.49 91.3901 60.11 91.2901 59.64 91.2901C58.48 91.2901 57.65 92.0101 57.65 93.3801C57.65 94.6301 58.38 95.4301 59.63 95.4301C60.05 95.4301 60.49 95.3501 60.76 95.2201L60.94 96.0301Z" fill="#B9B9B9"/>
<path d="M62.59 90.51V96.2H61.55V90.51H62.59Z" fill="#B9B9B9"/>
<path d="M68.57 93.3001C68.57 95.2001 67.42 96.2901 65.85 96.2901C64.24 96.2901 63.23 95.0601 63.23 93.4001C63.23 91.6501 64.33 90.4201 65.94 90.4201C67.59 90.4201 68.57 91.6701 68.57 93.3001ZM64.32 93.3801C64.32 94.5401 64.91 95.4601 65.9 95.4601C66.9 95.4601 67.47 94.53 67.47 93.34C67.47 92.27 66.94 91.2501 65.9 91.2501C64.88 91.2501 64.32 92.2101 64.32 93.3801ZM67.26 89.1801L66.21 90.2001H65.37L66.11 89.1801H67.26Z" fill="#B9B9B9"/>
<path d="M69.2 96.2V90.51H70.39L71.86 92.95C72.23 93.58 72.57 94.24 72.83 94.86L72.85 94.85C72.78 94.1 72.76 93.36 72.76 92.49V90.51H73.72V96.2H72.64L71.16 93.7C70.8 93.08 70.42 92.38 70.14 91.74L70.11 91.75C70.15 92.49 70.17 93.24 70.17 94.17V96.2H69.2Z" fill="#B9B9B9"/>
<path d="M76.11 95.06C76.44 95.25 76.95 95.42 77.48 95.42C78.14 95.42 78.51 95.11 78.51 94.64C78.51 94.21 78.22 93.96 77.5 93.7C76.56 93.37 75.96 92.86 75.96 92.05C75.96 91.12 76.74 90.42 77.97 90.42C78.59 90.42 79.04 90.55 79.33 90.7L79.08 91.54C78.87 91.43 78.48 91.27 77.94 91.27C77.28 91.27 77 91.62 77 91.96C77 92.4 77.33 92.6 78.09 92.89C79.08 93.27 79.55 93.76 79.55 94.58C79.55 95.49 78.86 96.29 77.39 96.29C76.79 96.29 76.16 96.12 75.85 95.93L76.11 95.06Z" fill="#B9B9B9"/>
<path d="M81.29 90.51V96.2H80.25V90.51H81.29Z" fill="#B9B9B9"/>
<path d="M82.22 96.2V90.51H83.41L84.88 92.95C85.25 93.58 85.59 94.24 85.85 94.86L85.87 94.85C85.8 94.1 85.78 93.36 85.78 92.49V90.51H86.74V96.2H85.66L84.18 93.7C83.82 93.08 83.44 92.38 83.16 91.74L83.13 91.75C83.17 92.49 83.19 93.24 83.19 94.17V96.2H82.22Z" fill="#B9B9B9"/>
<path d="M87.66 90.5901C88.12 90.5101 88.7 90.4701 89.32 90.4701C90.39 90.4701 91.11 90.6901 91.64 91.1301C92.19 91.5801 92.53 92.2601 92.53 93.2201C92.53 94.2401 92.18 94.9901 91.64 95.4801C91.07 95.9901 90.17 96.2501 89.06 96.2501C88.46 96.2501 88 96.2201 87.66 96.1801V90.5901ZM88.7 95.4001C88.85 95.4301 89.07 95.4301 89.28 95.4301C90.63 95.4401 91.43 94.6901 91.43 93.2501C91.44 92.0001 90.71 91.2701 89.41 91.2701C89.08 91.2701 88.85 91.3001 88.7 91.3301V95.4001Z" fill="#B9B9B9"/>
<path d="M94.2 90.51V96.2H93.16V90.51H94.2Z" fill="#B9B9B9"/>
<path d="M99.21 96.0301C98.96 96.1501 98.42 96.2901 97.73 96.2901C95.93 96.2901 94.83 95.1601 94.83 93.4301C94.83 91.5601 96.14 90.4301 97.87 90.4301C98.55 90.4301 99.04 90.5701 99.25 90.6801L99.02 91.5101C98.76 91.3901 98.38 91.2901 97.91 91.2901C96.75 91.2901 95.92 92.0101 95.92 93.3801C95.92 94.6301 96.65 95.4301 97.9 95.4301C98.32 95.4301 98.76 95.3501 99.03 95.2201L99.21 96.0301Z" fill="#B9B9B9"/>
<path d="M101.03 94.59L100.55 96.2H99.48L101.3 90.51H102.62L104.47 96.2H103.35L102.84 94.59H101.03ZM102.67 93.8L102.22 92.4C102.11 92.05 102.02 91.66 101.93 91.33H101.91C101.83 91.66 101.74 92.06 101.64 92.4L101.2 93.8H102.67Z" fill="#B9B9B9"/>
<path d="M105 90.51H106.04V95.32H108.38V96.19H105V90.51Z" fill="#B9B9B9"/>
<path d="M110.38 90.5901C110.84 90.5101 111.42 90.4701 112.04 90.4701C113.11 90.4701 113.83 90.6901 114.36 91.1301C114.91 91.5801 115.25 92.2601 115.25 93.2201C115.25 94.2401 114.9 94.9901 114.36 95.4801C113.79 95.9901 112.89 96.2501 111.78 96.2501C111.18 96.2501 110.72 96.2201 110.38 96.1801V90.5901ZM111.42 95.4001C111.57 95.4301 111.79 95.4301 112 95.4301C113.35 95.4401 114.15 94.6901 114.15 93.2501C114.16 92.0001 113.43 91.2701 112.13 91.2701C111.8 91.2701 111.57 91.3001 111.42 91.3301V95.4001Z" fill="#B9B9B9"/>
<path d="M119.07 93.67H116.93V95.34H119.33V96.19H115.9V90.5H119.21V91.35H116.94V92.81H119.08L119.07 93.67Z" fill="#B9B9B9"/>
<path d="M2.49 101.51H0.869995V100.64H5.16999V101.51H3.52999V106.32H2.49V101.51Z" fill="#B9B9B9"/>
<path d="M5.57001 100.72C5.96001 100.65 6.54001 100.6 7.15001 100.6C7.96001 100.6 8.52001 100.74 8.90001 101.06C9.21001 101.32 9.39001 101.71 9.39001 102.2C9.39001 102.93 8.89001 103.43 8.36001 103.62V103.64C8.77001 103.8 9.01001 104.19 9.15001 104.74C9.33001 105.45 9.49001 106.1 9.60001 106.32H8.53001C8.44001 106.16 8.31001 105.69 8.15001 104.98C7.99001 104.24 7.72001 104 7.13001 103.98H6.60001V106.32H5.57001V100.72ZM6.60001 103.23H7.21001C7.91001 103.23 8.35001 102.86 8.35001 102.29C8.35001 101.67 7.91001 101.38 7.24001 101.38C6.91001 101.38 6.70001 101.41 6.59001 101.43V103.23H6.60001Z" fill="#B9B9B9"/>
<path d="M11.31 104.72L10.83 106.33H9.76001L11.58 100.64H12.9L14.75 106.33H13.63L13.12 104.72H11.31ZM12.95 103.93L12.5 102.53C12.39 102.18 12.3 101.79 12.21 101.46H12.19C12.11 101.79 12.02 102.19 11.92 102.53L11.48 103.93H12.95Z" fill="#B9B9B9"/>
<path d="M15.28 100.72C15.61 100.65 16.21 100.6 16.8 100.6C17.56 100.6 18.04 100.7 18.43 100.96C18.78 101.18 19.02 101.54 19.02 102.03C19.02 102.55 18.69 103.03 18.07 103.26V103.28C18.67 103.43 19.22 103.91 19.22 104.69C19.22 105.19 19 105.59 18.68 105.86C18.27 106.21 17.61 106.38 16.57 106.38C15.99 106.38 15.56 106.34 15.29 106.31V100.72H15.28ZM16.31 102.96H16.84C17.56 102.96 17.96 102.62 17.96 102.14C17.96 101.61 17.56 101.36 16.9 101.36C16.59 101.36 16.42 101.38 16.31 101.41V102.96ZM16.31 105.57C16.45 105.6 16.62 105.6 16.86 105.6C17.52 105.6 18.12 105.35 18.12 104.65C18.12 103.99 17.54 103.72 16.82 103.72H16.3L16.31 105.57Z" fill="#B9B9B9"/>
<path d="M20.99 104.72L20.51 106.33H19.44L21.26 100.64H22.58L24.43 106.33H23.31L22.8 104.72H20.99ZM22.63 103.93L22.18 102.53C22.07 102.18 21.98 101.79 21.89 101.46H21.87C21.79 101.79 21.7 102.19 21.6 102.53L21.16 103.93H22.63Z" fill="#B9B9B9"/>
<path d="M26.24 100.64H27.28V104.33C27.28 105.9 26.52 106.42 25.39 106.42C25.1 106.42 24.74 106.37 24.52 106.29L24.65 105.45C24.82 105.51 25.04 105.55 25.29 105.55C25.88 105.55 26.24 105.28 26.24 104.29V100.64Z" fill="#B9B9B9"/>
<path d="M29.29 104.72L28.81 106.33H27.74L29.56 100.64H30.88L32.73 106.33H31.61L31.1 104.72H29.29ZM30.93 103.93L30.48 102.53C30.37 102.18 30.28 101.79 30.19 101.46H30.17C30.09 101.79 30 102.19 29.9 102.53L29.46 103.93H30.93Z" fill="#B9B9B9"/>
<path d="M33.26 100.72C33.72 100.64 34.3 100.6 34.92 100.6C35.99 100.6 36.71 100.82 37.24 101.26C37.79 101.71 38.13 102.39 38.13 103.35C38.13 104.37 37.78 105.12 37.24 105.61C36.67 106.12 35.77 106.38 34.66 106.38C34.06 106.38 33.6 106.35 33.26 106.31V100.72ZM34.3 105.53C34.45 105.56 34.67 105.56 34.88 105.56C36.23 105.57 37.03 104.82 37.03 103.38C37.04 102.13 36.31 101.4 35.01 101.4C34.68 101.4 34.45 101.43 34.3 101.46V105.53Z" fill="#B9B9B9"/>
<path d="M43.81 103.42C43.81 105.32 42.66 106.41 41.09 106.41C39.48 106.41 38.47 105.18 38.47 103.52C38.47 101.77 39.57 100.54 41.18 100.54C42.83 100.55 43.81 101.8 43.81 103.42ZM39.56 103.5C39.56 104.66 40.15 105.58 41.14 105.58C42.14 105.58 42.71 104.65 42.71 103.46C42.71 102.39 42.18 101.37 41.14 101.37C40.12 101.38 39.56 102.34 39.56 103.5Z" fill="#B9B9B9"/>
<path d="M44.44 100.72C44.83 100.65 45.41 100.6 46.02 100.6C46.83 100.6 47.39 100.74 47.77 101.06C48.08 101.32 48.26 101.71 48.26 102.2C48.26 102.93 47.76 103.43 47.23 103.62V103.64C47.64 103.8 47.88 104.19 48.02 104.74C48.2 105.45 48.36 106.1 48.47 106.32H47.4C47.31 106.16 47.18 105.69 47.02 104.98C46.86 104.24 46.59 104 46 103.98H45.48V106.32H44.45V100.72H44.44ZM45.47 103.23H46.08C46.78 103.23 47.22 102.86 47.22 102.29C47.22 101.67 46.78 101.38 46.11 101.38C45.78 101.38 45.57 101.41 45.46 101.43V103.23H45.47Z" fill="#B9B9B9"/>
<path d="M52.16 103.8H50.02V105.47H52.42V106.32H48.99V100.63H52.3V101.48H50.03V102.94H52.17V103.8H52.16Z" fill="#B9B9B9"/>
<path d="M53.05 105.19C53.38 105.38 53.89 105.55 54.42 105.55C55.08 105.55 55.45 105.24 55.45 104.77C55.45 104.34 55.16 104.09 54.44 103.83C53.5 103.5 52.9 102.99 52.9 102.18C52.9 101.25 53.68 100.55 54.91 100.55C55.53 100.55 55.98 100.68 56.27 100.83L56.02 101.67C55.81 101.56 55.42 101.4 54.88 101.4C54.22 101.4 53.94 101.75 53.94 102.09C53.94 102.53 54.27 102.73 55.03 103.02C56.02 103.4 56.49 103.89 56.49 104.71C56.49 105.62 55.8 106.42 54.33 106.42C53.73 106.42 53.1 106.25 52.79 106.06L53.05 105.19Z" fill="#B9B9B9"/>
<path d="M56.66 106.66L58.71 100.54H59.44L57.38 106.66H56.66Z" fill="#B9B9B9"/>
<path d="M60.91 104.72L60.43 106.33H59.36L61.18 100.64H62.5L64.35 106.33H63.23L62.72 104.72H60.91ZM62.54 103.93L62.09 102.53C61.98 102.18 61.89 101.79 61.8 101.46H61.78C61.7 101.79 61.61 102.19 61.51 102.53L61.07 103.93H62.54Z" fill="#B9B9B9"/>
<path d="M64.86 105.19C65.19 105.38 65.7 105.55 66.23 105.55C66.89 105.55 67.26 105.24 67.26 104.77C67.26 104.34 66.97 104.09 66.25 103.83C65.31 103.5 64.71 102.99 64.71 102.18C64.71 101.25 65.49 100.55 66.72 100.55C67.34 100.55 67.79 100.68 68.08 100.83L67.83 101.67C67.62 101.56 67.23 101.4 66.69 101.4C66.03 101.4 65.75 101.75 65.75 102.09C65.75 102.53 66.08 102.73 66.84 103.02C67.83 103.4 68.3 103.89 68.3 104.71C68.3 105.62 67.61 106.42 66.14 106.42C65.54 106.42 64.91 106.25 64.6 106.06L64.86 105.19Z" fill="#B9B9B9"/>
<path d="M70.48 100.72C70.94 100.64 71.52 100.6 72.14 100.6C73.21 100.6 73.93 100.82 74.46 101.26C75.01 101.71 75.35 102.39 75.35 103.35C75.35 104.37 75 105.12 74.46 105.61C73.89 106.12 72.99 106.38 71.88 106.38C71.28 106.38 70.82 106.35 70.48 106.31V100.72ZM71.52 105.53C71.67 105.56 71.89 105.56 72.1 105.56C73.45 105.57 74.25 104.82 74.25 103.38C74.26 102.13 73.53 101.4 72.23 101.4C71.9 101.4 71.67 101.43 71.52 101.46V105.53Z" fill="#B9B9B9"/>
<path d="M79.17 103.8H77.03V105.47H79.43V106.32H76V100.63H79.31V101.48H77.04V102.94H79.18V103.8H79.17Z" fill="#B9B9B9"/>
<path d="M81.55 100.64H82.59V105.45H84.93V106.32H81.55V100.64Z" fill="#B9B9B9"/>
<path d="M86.63 104.72L86.15 106.33H85.08L86.9 100.64H88.22L90.07 106.33H88.95L88.44 104.72H86.63ZM88.26 103.93L87.81 102.53C87.7 102.18 87.61 101.79 87.52 101.46H87.5C87.42 101.79 87.33 102.19 87.23 102.53L86.79 103.93H88.26Z" fill="#B9B9B9"/>
<path d="M90.57 105.19C90.9 105.38 91.41 105.55 91.94 105.55C92.6 105.55 92.97 105.24 92.97 104.77C92.97 104.34 92.68 104.09 91.96 103.83C91.02 103.5 90.42 102.99 90.42 102.18C90.42 101.25 91.2 100.55 92.43 100.55C93.05 100.55 93.5 100.68 93.79 100.83L93.54 101.67C93.33 101.56 92.94 101.4 92.4 101.4C91.74 101.4 91.46 101.75 91.46 102.09C91.46 102.53 91.79 102.73 92.55 103.02C93.54 103.4 94.01 103.89 94.01 104.71C94.01 105.62 93.32 106.42 91.85 106.42C91.25 106.42 90.62 106.25 90.31 106.06L90.57 105.19Z" fill="#B9B9B9"/>
<path d="M97.34 104.72L96.86 106.33H95.79L97.61 100.64H98.93L100.78 106.33H99.66L99.15 104.72H97.34ZM98.97 103.93L98.52 102.53C98.41 102.18 98.32 101.79 98.23 101.46H98.21C98.13 101.79 98.04 102.19 97.94 102.53L97.5 103.93H98.97Z" fill="#B9B9B9"/>
<path d="M106.08 104C106.05 103.27 106.01 102.38 106.01 101.61H105.99C105.8 102.31 105.56 103.07 105.32 103.79L104.49 106.25H103.69L102.94 103.82C102.72 103.09 102.51 102.32 102.37 101.6H102.35C102.33 102.34 102.29 103.25 102.25 104.03L102.12 106.32H101.15L101.53 100.63H102.89L103.63 102.91C103.83 103.58 104.02 104.26 104.15 104.89H104.17C104.32 104.27 104.52 103.57 104.74 102.91L105.53 100.63H106.88L107.21 106.32H106.2L106.08 104Z" fill="#B9B9B9"/>
<path d="M111.18 103.8H109.04V105.47H111.44V106.32H108V100.63H111.31V101.48H109.04V102.94H111.18V103.8ZM111.04 99.3201L109.99 100.34H109.15L109.89 99.3201H111.04Z" fill="#B9B9B9"/>
<path d="M112.08 100.72C112.47 100.65 113.05 100.6 113.66 100.6C114.47 100.6 115.03 100.74 115.41 101.06C115.72 101.32 115.9 101.71 115.9 102.2C115.9 102.93 115.4 103.43 114.87 103.62V103.64C115.28 103.8 115.52 104.19 115.66 104.74C115.84 105.45 116 106.1 116.11 106.32H115.04C114.95 106.16 114.82 105.69 114.66 104.98C114.5 104.24 114.23 104 113.64 103.98H113.12V106.32H112.09L112.08 100.72ZM113.12 103.23H113.73C114.43 103.23 114.87 102.86 114.87 102.29C114.87 101.67 114.43 101.38 113.76 101.38C113.43 101.38 113.22 101.41 113.11 101.43L113.12 103.23Z" fill="#B9B9B9"/>
<path d="M117.66 100.64V106.33H116.62V100.64H117.66Z" fill="#B9B9B9"/>
<path d="M122.67 106.16C122.42 106.28 121.88 106.42 121.19 106.42C119.39 106.42 118.29 105.29 118.29 103.56C118.29 101.69 119.6 100.56 121.33 100.56C122.01 100.56 122.5 100.7 122.71 100.81L122.48 101.64C122.22 101.52 121.84 101.42 121.37 101.42C120.21 101.42 119.38 102.14 119.38 103.51C119.38 104.76 120.11 105.56 121.36 105.56C121.78 105.56 122.22 105.48 122.49 105.35L122.67 106.16Z" fill="#B9B9B9"/>
<path d="M124.49 104.72L124.01 106.33H122.94L124.76 100.64H126.08L127.93 106.33H126.81L126.3 104.72H124.49ZM126.13 103.93L125.68 102.53C125.57 102.18 125.48 101.79 125.39 101.46H125.37C125.29 101.79 125.2 102.19 125.1 102.53L124.66 103.93H126.13Z" fill="#B9B9B9"/>
<path d="M128.44 105.19C128.77 105.38 129.28 105.55 129.81 105.55C130.47 105.55 130.84 105.24 130.84 104.77C130.84 104.34 130.55 104.09 129.83 103.83C128.89 103.5 128.29 102.99 128.29 102.18C128.29 101.25 129.07 100.55 130.3 100.55C130.92 100.55 131.37 100.68 131.66 100.83L131.41 101.67C131.2 101.56 130.81 101.4 130.27 101.4C129.61 101.4 129.33 101.75 129.33 102.09C129.33 102.53 129.66 102.73 130.42 103.02C131.41 103.4 131.88 103.89 131.88 104.71C131.88 105.62 131.19 106.42 129.72 106.42C129.12 106.42 128.49 106.25 128.18 106.06L128.44 105.19Z" fill="#B9B9B9"/>
<path d="M103.41 50.64C103.16 50.76 102.62 50.9 101.93 50.9C100.13 50.9 99.03 49.77 99.03 48.04C99.03 46.17 100.34 45.04 102.07 45.04C102.75 45.04 103.24 45.18 103.45 45.29L103.22 46.12C102.96 46 102.58 45.9 102.11 45.9C100.95 45.9 100.12 46.62 100.12 47.99C100.12 49.24 100.85 50.04 102.1 50.04C102.52 50.04 102.96 49.96 103.23 49.83L103.41 50.64Z" fill="#C8C8C8"/>
<path d="M104.01 49.67C104.34 49.86 104.85 50.03 105.38 50.03C106.04 50.03 106.41 49.72 106.41 49.25C106.41 48.82 106.12 48.57 105.4 48.31C104.46 47.98 103.86 47.47 103.86 46.66C103.86 45.73 104.64 45.03 105.87 45.03C106.49 45.03 106.94 45.16 107.23 45.31L107 46.15C106.79 46.04 106.4 45.88 105.86 45.88C105.2 45.88 104.92 46.23 104.92 46.57C104.92 47.01 105.25 47.21 106.01 47.5C107 47.88 107.47 48.37 107.47 49.19C107.47 50.1 106.78 50.9 105.31 50.9C104.71 50.9 104.08 50.73 103.77 50.54L104.01 49.67Z" fill="#C8C8C8"/>
<path d="M109.29 49.2L108.81 50.81H107.74L109.56 45.12H110.88L112.73 50.81H111.61L111.1 49.2H109.29ZM110.92 48.41L110.47 47.01C110.36 46.66 110.27 46.27 110.18 45.94H110.16C110.08 46.27 109.99 46.67 109.89 47.01L109.45 48.41H110.92Z" fill="#C8C8C8"/>
<path d="M100.68 53.36L99.06 53.41L99.03 52.54L103.33 52.41L103.36 53.28L101.72 53.33L101.87 58.14L100.83 58.17L100.68 53.36Z" fill="#C8C8C8"/>
<path d="M104.76 52.36L104.86 55.67C104.89 56.78 105.37 57.28 106.07 57.26C106.82 57.24 107.25 56.71 107.22 55.6L107.12 52.29L108.16 52.26L108.26 55.51C108.31 57.26 107.44 58.07 106.06 58.11C104.75 58.15 103.87 57.44 103.82 55.65L103.72 52.4L104.76 52.36Z" fill="#C8C8C8"/>
<path d="M113.33 57.6199C113.09 57.7499 112.55 57.8999 111.86 57.9199C110.06 57.9799 108.92 56.8799 108.87 55.1499C108.81 53.2799 110.08 52.1099 111.82 52.0599C112.5 52.0399 112.99 52.1599 113.2 52.2699L113 53.0999C112.73 52.9899 112.35 52.8999 111.88 52.9099C110.72 52.9499 109.91 53.6999 109.95 55.0599C109.99 56.3099 110.74 57.0799 111.99 57.0499C112.41 57.0399 112.85 56.9399 113.12 56.8099L113.33 57.6199Z" fill="#C8C8C8"/>
<path d="M115.11 56.12L114.67 57.74L113.6 57.77L115.25 52.03L116.57 51.99L118.59 57.62L117.48 57.65L116.92 56.06L115.11 56.12ZM116.72 55.29L116.23 53.9C116.11 53.55 116 53.17 115.91 52.84H115.89C115.82 53.18 115.74 53.57 115.65 53.91L115.25 55.33L116.72 55.29Z" fill="#C8C8C8"/>
</svg>
