<svg width="38" height="38" viewBox="0 0 38 38" fill="none" xmlns="http://www.w3.org/2000/svg">
<path d="M37.5599 19.1501C37.5599 8.78012 29.15 0.370117 18.78 0.370117C8.41003 0.370117 0 8.78012 0 19.1501C0 28.5201 6.86998 36.3001 15.85 37.7001V24.5801H11.08V19.1501H15.85V15.0101C15.85 10.3001 18.6499 7.70012 22.9399 7.70012C24.9999 7.70012 27.14 8.07012 27.14 8.07012V12.6901H24.77C22.44 12.6901 21.71 14.1401 21.71 15.6201V19.1401H26.92L26.09 24.5701H21.71V37.6901C30.69 36.2901 37.5599 28.5201 37.5599 19.1501Z" fill="#F3F3F3"/>
<path d="M26.09 24.5802L26.92 19.1502H21.71V15.6302C21.71 14.1402 22.44 12.7002 24.77 12.7002H27.14V8.0802C27.14 8.0802 24.9899 7.71021 22.9399 7.71021C18.6499 7.71021 15.85 10.3102 15.85 15.0202V19.1602H11.08V24.5902H15.85V37.7102C16.81 37.8602 17.79 37.9402 18.78 37.9402C19.78 37.9402 20.76 37.8602 21.71 37.7102V24.5802H26.09Z" fill="#00A300"/>
</svg>
