<svg width="38" height="38" viewBox="0 0 38 38" fill="none" xmlns="http://www.w3.org/2000/svg">
<path d="M18.78 37.9301C29.1519 37.9301 37.5601 29.522 37.5601 19.1501C37.5601 8.77821 29.1519 0.370117 18.78 0.370117C8.40812 0.370117 0 8.77821 0 19.1501C0 29.522 8.40812 37.9301 18.78 37.9301Z" fill="#F3F3F3"/>
<path d="M24.6101 12.04C23.9001 12.04 23.3201 12.62 23.3201 13.33C23.3201 14.04 23.9001 14.62 24.6101 14.62C25.3201 14.62 25.9 14.04 25.9 13.33C25.91 12.62 25.3301 12.04 24.6101 12.04Z" fill="white"/>
<path d="M18.8701 13.7002C15.8801 13.7002 13.4501 16.1302 13.4501 19.1202C13.4501 22.1102 15.8801 24.5402 18.8701 24.5402C21.8601 24.5402 24.29 22.1102 24.29 19.1202C24.3 16.1302 21.8601 13.7002 18.8701 13.7002ZM18.8701 22.6002C16.9501 22.6002 15.4 21.0402 15.4 19.1302C15.4 17.2102 16.9601 15.6602 18.8701 15.6602C20.7901 15.6602 22.3401 17.2202 22.3401 19.1302C22.3501 21.0402 20.7901 22.6002 18.8701 22.6002Z" fill="#00A300"/>
<path d="M23.1801 30.1301H14.39C10.74 30.1301 7.78003 27.1601 7.78003 23.5201V14.7301C7.78003 11.0801 10.75 8.12012 14.39 8.12012H23.1801C26.8301 8.12012 29.8 11.0901 29.8 14.7301V23.5201C29.8 27.1601 26.8301 30.1301 23.1801 30.1301ZM14.39 10.1801C11.88 10.1801 9.8501 12.2201 9.8501 14.7201V23.5101C9.8501 26.0201 11.89 28.0501 14.39 28.0501H23.1801C25.6901 28.0501 27.7201 26.0101 27.7201 23.5101V14.7201C27.7201 12.2101 25.6801 10.1801 23.1801 10.1801H14.39Z" fill="#00A300"/>
</svg>
