<svg width="39" height="38" viewBox="0 0 39 38" fill="none" xmlns="http://www.w3.org/2000/svg">
<path d="M19.65 37.9301C30.0219 37.9301 38.4299 29.522 38.4299 19.1501C38.4299 8.77821 30.0219 0.370117 19.65 0.370117C9.27812 0.370117 0.869995 8.77821 0.869995 19.1501C0.869995 29.522 9.27812 37.9301 19.65 37.9301Z" fill="#F3F3F3"/>
<g clip-path="url(#clip0_420_3)">
<path d="M23.8284 18.4092C23.8284 17.5472 23.8367 16.6853 23.827 15.8233C23.8034 13.8441 22.2138 12.3735 20.1048 12.3701C17.9895 12.3667 16.3805 13.8332 16.3631 15.8015C16.3492 17.3988 16.3589 18.996 16.3596 20.5933C16.3603 22.5657 17.0048 23.5039 18.8305 24.2841C19.0284 24.3685 19.2596 24.6531 19.2659 24.8506C19.3055 26.0917 19.2763 27.3349 19.2909 28.5768C19.2957 28.9935 19.1506 29.1766 18.7068 29.1596C18.193 29.1392 17.6659 29.1126 17.1673 29.2066C16.9318 29.2508 16.7499 29.5708 16.5437 29.7655C16.7693 29.9637 16.9916 30.3286 17.2221 30.3347C19.1284 30.3817 21.0367 30.3824 22.9423 30.3368C23.1812 30.3313 23.411 29.9793 23.645 29.788C23.42 29.5824 23.2249 29.2631 22.9638 29.197C22.5513 29.0929 22.0916 29.1262 21.6575 29.1616C21.0978 29.2073 20.8693 29.0343 20.8895 28.4461C20.9291 27.3064 20.9207 26.1639 20.8909 25.0242C20.8791 24.5728 21.0256 24.3801 21.4721 24.2194C23.0381 23.6564 23.8193 22.4908 23.8263 20.8432C23.8298 20.0316 23.8263 19.2207 23.8263 18.4092H23.8284ZM9.9999 18.4371C10.3124 19.4154 10.5756 20.357 10.9207 21.2687C11.0902 21.7167 11.4985 21.9352 11.9902 21.6799C12.4791 21.426 12.4825 21.01 12.2624 20.5735C11.5499 19.1601 11.5506 17.7562 12.2812 16.3469C12.5055 15.9146 12.4846 15.4931 11.9902 15.2453C11.4895 14.9941 11.0978 15.231 10.9263 15.6749C10.5832 16.5614 10.3166 17.4764 9.99921 18.4384L9.9999 18.4371ZM12.5693 18.45C12.7582 19.0975 12.8978 19.7143 13.1228 20.2992C13.2937 20.7431 13.6589 21.0093 14.17 20.7826C14.6596 20.5647 14.7513 20.1753 14.5235 19.7089C14.1173 18.8769 14.1214 18.047 14.5339 17.2191C14.7707 16.7438 14.6596 16.2883 14.1666 16.1767C13.8742 16.1106 13.3207 16.3333 13.1874 16.5825C12.8839 17.1489 12.7673 17.8127 12.5707 18.4507L12.5693 18.45ZM27.6242 18.4732C27.418 17.8073 27.293 17.1265 26.9832 16.5389C26.8596 16.304 26.2916 16.1215 25.9923 16.1917C25.5464 16.2958 25.4284 16.7363 25.6457 17.1775C26.0645 18.0265 26.077 18.8749 25.6506 19.7232C25.4318 20.1582 25.5228 20.5266 25.9457 20.7553C26.4242 21.0147 26.8339 20.8146 27.0207 20.3679C27.27 19.7708 27.4193 19.1336 27.6242 18.4732Z" fill="#00A300"/>
<path d="M30 19.391C29.7813 19.9779 29.5924 20.5784 29.3347 21.1482C29.1201 21.6228 28.7583 21.9775 28.1792 21.6745C27.6521 21.3988 27.7174 20.9644 27.9493 20.5028C28.6313 19.1452 28.6299 17.7781 27.9549 16.4185C27.7236 15.9528 27.6771 15.5245 28.2035 15.2495C28.7444 14.9669 29.1097 15.276 29.3132 15.7274C29.5812 16.3225 29.775 16.9502 30 17.5636V19.3903V19.391Z" fill="#00A300"/>
<path d="M23.8284 18.4092C23.8284 19.2207 23.8312 20.0316 23.8284 20.8432C23.8215 22.4908 23.0396 23.6564 21.4743 24.2194C21.0277 24.3801 20.8812 24.5728 20.893 25.0242C20.9229 26.1646 20.9312 27.3064 20.8916 28.4461C20.8708 29.0343 21.1 29.2073 21.6597 29.1616C22.0944 29.1262 22.5534 29.0929 22.9659 29.197C23.2271 29.2631 23.4222 29.5824 23.6472 29.788C23.4132 29.9793 23.1826 30.3313 22.9444 30.3368C21.0382 30.3817 19.1298 30.381 17.2243 30.3347C16.993 30.3293 16.7715 29.9643 16.5458 29.7655C16.7521 29.5708 16.934 29.2508 17.1694 29.2066C17.668 29.1126 18.1951 29.1392 18.709 29.1596C19.1527 29.1773 19.2979 28.9935 19.293 28.5768C19.2784 27.3349 19.3076 26.0917 19.268 24.8506C19.2618 24.6524 19.0305 24.3685 18.8326 24.2841C17.0062 23.5032 16.3625 22.5657 16.3618 20.5933C16.3618 18.996 16.3507 17.3988 16.3652 15.8015C16.3805 13.8332 17.9896 12.3667 20.1048 12.3701C22.2139 12.3735 23.8034 13.8441 23.8264 15.8233C23.8361 16.6853 23.8278 17.5472 23.8284 18.4092Z" fill="#00A300"/>
<path d="M10 18.437C10.3174 17.4749 10.584 16.5599 10.9271 15.6734C11.0986 15.2302 11.4903 14.9933 11.991 15.2438C12.4854 15.4916 12.5062 15.9131 12.2819 16.3454C11.5507 17.7554 11.55 19.1586 12.2632 20.5721C12.4833 21.0092 12.4799 21.4245 11.991 21.6784C11.4993 21.9337 11.091 21.7152 10.9215 21.2672C10.5764 20.3556 10.3132 19.414 10.0007 18.4356L10 18.437Z" fill="#00A300"/>
<path d="M12.5694 18.45C12.766 17.8121 12.8826 17.1482 13.1861 16.5818C13.3194 16.3326 13.8729 16.1093 14.1653 16.176C14.6583 16.2877 14.7694 16.7431 14.5326 17.2184C14.1208 18.0463 14.116 18.8762 14.5222 19.7082C14.75 20.1746 14.659 20.564 14.1687 20.7819C13.6576 21.0093 13.2924 20.7424 13.1215 20.2985C12.8965 19.7136 12.7569 19.0968 12.5681 18.4493L12.5694 18.45Z" fill="#00A300"/>
<path d="M27.6243 18.4739C27.4194 19.1343 27.2708 19.7716 27.0208 20.3687C26.834 20.8153 26.4243 21.0148 25.9458 20.7561C25.5229 20.5273 25.4319 20.159 25.6507 19.7239C26.0771 18.8756 26.0646 18.0279 25.6458 17.1782C25.4285 16.7371 25.5465 16.2972 25.9923 16.1924C26.2917 16.1223 26.8597 16.3054 26.9833 16.5396C27.293 17.1265 27.418 17.808 27.6243 18.4739Z" fill="#00A300"/>
</g>
<defs>
<clipPath id="clip0_420_3">
<rect width="20" height="18" fill="white" transform="translate(10 12.3701)"/>
</clipPath>
</defs>
</svg>
