<svg width="38" height="38" viewBox="0 0 38 38" fill="none" xmlns="http://www.w3.org/2000/svg">
<path d="M18.78 37.9301C29.1519 37.9301 37.5599 29.522 37.5599 19.1501C37.5599 8.77821 29.1519 0.370117 18.78 0.370117C8.40812 0.370117 0 8.77821 0 19.1501C0 29.522 8.40812 37.9301 18.78 37.9301Z" fill="#F3F3F3"/>
<path d="M28.84 16.4602C28.84 13.9702 26.82 11.9502 24.33 11.9502H12.8C10.31 11.9502 8.29004 13.9702 8.29004 16.4602V21.8302C8.29004 24.3202 10.31 26.3402 12.8 26.3402H24.33C26.82 26.3402 28.84 24.3202 28.84 21.8302V16.4602ZM22.05 19.5502L16.88 22.1102C16.68 22.2202 15.99 22.0702 15.99 21.8402V16.5902C15.99 16.3602 16.68 16.2102 16.89 16.3302L21.84 19.0202C22.05 19.1402 22.26 19.4402 22.05 19.5502Z" fill="#00A300"/>
</svg>
